<?xml version="1.0" encoding="UTF-8" standalone="no"?>
<!-- Created with Inkscape (http://www.inkscape.org/) -->

<svg
   xmlns:dc="http://purl.org/dc/elements/1.1/"
   xmlns:cc="http://creativecommons.org/ns#"
   xmlns:rdf="http://www.w3.org/1999/02/22-rdf-syntax-ns#"
   xmlns:svg="http://www.w3.org/2000/svg"
   xmlns="http://www.w3.org/2000/svg"
   xmlns:sodipodi="http://sodipodi.sourceforge.net/DTD/sodipodi-0.dtd"
   xmlns:inkscape="http://www.inkscape.org/namespaces/inkscape"
   width="730"
   height="200"
   viewBox="0 0 730 200"
   id="svg3473"
   version="1.1"
   inkscape:version="0.91 r13725"
   sodipodi:docname="logo-svg-colored.svg">
  <defs
     id="defs3475" />
  <sodipodi:namedview
     id="base"
     pagecolor="#ffffff"
     bordercolor="#666666"
     borderopacity="1.0"
     inkscape:pageopacity="0.0"
     inkscape:pageshadow="2"
     inkscape:zoom="0.70710678"
     inkscape:cx="501.13715"
     inkscape:cy="284.89491"
     inkscape:document-units="px"
     inkscape:current-layer="layer1"
     showgrid="false"
     units="px"
     inkscape:window-width="1366"
     inkscape:window-height="706"
     inkscape:window-x="-8"
     inkscape:window-y="-8"
     inkscape:window-maximized="1" />
  <metadata
     id="metadata3478">
    <rdf:RDF>
      <cc:Work
         rdf:about="">
        <dc:format>image/svg+xml</dc:format>
        <dc:type
           rdf:resource="http://purl.org/dc/dcmitype/StillImage" />
        <dc:title></dc:title>
      </cc:Work>
    </rdf:RDF>
  </metadata>
  <g
     inkscape:label="Layer 1"
     inkscape:groupmode="layer"
     id="layer1"
     transform="translate(0,-852.36216)">
    <path
       style="fill:#013c64;fill-opacity:1"
       d="m 2.49546,931.98117 0,-58.554 38.77405,0.304 38.77405,0.304 6.6849,3.29245 c 9.35941,4.60971 15.13764,11.48697 16.81021,20.00753 3.51279,17.89528 -3.53944,32.9597 -18.67319,39.88816 -5.61027,2.56847 -6.30971,3.9123 -3.95413,7.59704 0.77874,1.21815 6.81307,12.00232 13.40964,23.96482 l 11.99375,21.75 -9.65964,-0.0288 -9.65964,-0.0288 -7.7946,-14.75 -5.13713,-9.72119 -12.93173,-24.47118 -20.17153,0 -20.17153,0 -0.64674,7.65088 c -0.3557,4.20798 -0.64674,13.14517 -0.64674,19.86043 0,6.71525 -0.28616,14.29735 -0.63592,16.84912 l -0.63592,4.63957 -7.86408,0 -7.86408,0 0,-58.554 z m 76.03998,-8.74874 c 7.65323,-4.04712 11.13254,-14.56192 7.60898,-22.995 -0.74307,-1.77843 -3.00873,-4.68898 -5.0348,-6.46788 l -3.68375,-3.23438 -27.84857,0 -27.84857,0 -0.60298,2.25 c -0.33164,1.2375 -0.60912,9.1125 -0.61663,17.5 l -0.0137,15.25 26.84272,0 c 26.09169,0 26.96455,-0.0644 31.19726,-2.30274 z"
       id="path4331"
       inkscape:connector-curvature="0"
       sodipodi:nodetypes="ccccsssssccccccccsssccccccsscccsscscc" />
    <path
       style="fill:#013c64;fill-opacity:1"
       d="m 238.99546,991.92751 c -15.08759,-2.69349 -27.59225,-7.50761 -31.90498,-12.283 -1.04775,-1.16014 -2.28525,-2.10934 -2.75,-2.10934 -0.46476,0 -0.84502,2.925 -0.84502,6.5 l 0,6.5 -46.5,0 -46.5,0 0,-58.5 0,-58.5 45,0 45,0 0,3.36043 c 0,1.84823 -0.28616,5.44824 -0.63592,8 l -0.63592,4.63957 -15.61408,0.003 c -8.58774,10e-4 -24.72658,0.29787 -35.86408,0.65872 l -20.25,0.6561 0,14.69116 0,14.69117 22,-0.48867 22,-0.48866 0,3.4992 c 0,1.92457 -0.27855,5.53151 -0.61901,8.01543 l -0.61902,4.51623 -21.88098,0.72819 -21.88099,0.72819 0,19.5449 0,19.5449 9.15363,-0.64975 c 5.03449,-0.35736 20.05276,-0.64974 33.37392,-0.64974 l 24.2203,0 5.25215,-8 c 2.88869,-4.4 5.46796,-8 5.73172,-8 0.26377,0 1.75709,1.07496 3.31851,2.38881 4.0445,3.40323 18.46736,11.02987 24.94977,13.19315 4.29418,1.43304 8.68144,1.84449 20.01124,1.87674 14.45916,0.0412 14.53556,0.0293 21.29046,-3.29128 7.84755,-3.85776 11.33082,-8.20725 12.31333,-15.37541 0.50096,-3.65493 0.16612,-5.61265 -1.57524,-9.20982 -4.14913,-8.57094 -10.982,-11.19853 -33.03979,-12.70548 -19.30012,-1.31855 -28.79394,-3.0471 -35.37645,-6.44103 -11.31636,-5.8347 -16.17638,-14.0071 -15.39968,-25.89546 1.0052,-15.38575 10.49174,-25.18265 29.21229,-30.16797 6.83135,-1.8192 21.93272,-1.72239 31.356,0.20101 9.46735,1.9324 24.57319,8.24215 32.30941,13.49571 3.17592,2.15673 5.98863,4.26796 6.25048,4.69164 0.5566,0.90061 -9.16531,14.23939 -10.37833,14.23939 -0.45129,0 -2.7675,-1.47016 -5.14712,-3.26703 -13.48609,-10.18339 -23.37026,-13.73297 -38.2409,-13.73297 -10.34362,0 -18.32591,1.94284 -24.0857,5.86232 -3.65794,2.48919 -4.02514,3.14689 -4.29398,7.69103 -0.26662,4.50672 0.0125,5.25547 3,8.04716 5.79796,5.41798 12.00316,7.26049 28.45283,8.44852 16.87341,1.21863 30.95664,4.0745 36.89867,7.48251 5.37993,3.08563 12.10736,10.50356 14.77615,16.29279 2.98089,6.46622 2.76368,21.06317 -0.4078,27.40582 -5.11739,10.23429 -16.53812,18.21169 -31.06254,21.69723 -9.90265,2.37643 -18.88569,2.51399 -30.36333,0.46496 z"
       id="path4333"
       inkscape:connector-curvature="0" />
    <path
       style="fill:#013c64;fill-opacity:1"
       d="m 407.90236,991.06689 c -8.86032,-2.04352 -19.21138,-9.43521 -24.28518,-17.34205 -2.08016,-3.24164 -3.69739,-7.6833 -4.80105,-13.1859 -1.58502,-7.90259 -1.74138,-8.20244 -3.28387,-6.29754 -3.27064,4.03907 -5.07813,4.29377 -30.47105,4.29377 l -24.56575,0 0,16 0,16 -4.91821,0 c -8.80511,0 -8.08179,3.50009 -8.08179,-39.10699 l 0,-37.89301 19.75,0.0868 c 10.8625,0.0477 25.42154,0.39426 32.35341,0.7701 11.51363,0.62425 12.96698,0.92394 16.8081,3.46587 2.8145,1.86255 4.835,4.25297 6.11106,7.2299 2.08885,4.87308 3.34659,5.49463 4.9722,2.45715 1.67302,-3.12607 10.96107,-9.64088 17.00523,-11.92777 4.65033,-1.75953 7.74003,-2.08097 20,-2.08073 13.89675,2.8e-4 14.74962,0.1195 20.5,2.86564 8.38121,4.00252 17.30177,13.20444 20.3944,21.03764 2.14608,5.43573 2.34003,7.12983 1.87022,16.3352 -0.59129,11.58538 -2.40522,16.6438 -8.53742,23.8079 -4.77187,5.57486 -14.0023,11.48502 -19.97834,12.79195 -7.38039,1.61404 -25.1187,2.0121 -30.84196,0.6921 z m 30.96838,-16.47543 c 6.19689,-3.04338 12.01347,-9.07276 13.48242,-13.97566 0.62826,-2.09697 1.1423,-6.51016 1.1423,-9.8071 0,-4.79098 -0.52186,-6.77531 -2.59941,-9.88398 -4.30497,-6.44163 -8.3909,-10.13909 -13.75372,-12.44612 -4.40126,-1.89337 -6.38614,-2.12707 -14.67537,-1.72792 -8.46892,0.40781 -10.31596,0.8508 -15.85359,3.80233 -10.01997,5.34059 -14.10675,11.70891 -14.10675,21.98216 0,10.25611 5.08539,18.22033 14.48884,22.69096 4.49175,2.13549 6.11815,2.34574 16,2.06838 9.18021,-0.25766 11.80654,-0.70484 15.87528,-2.70305 z m -70.37528,-31.05629 c 1.40741,-1.40741 2,-3.33333 2,-6.5 0,-3.16667 -0.59259,-5.09259 -2,-6.5 -1.88148,-1.88148 -3.33333,-2 -24.5,-2 l -22.5,0 0,8.5 0,8.5 22.5,0 c 21.16667,0 22.61852,-0.11852 24.5,-2 z"
       id="path4335"
       inkscape:connector-curvature="0" />
    <path
       style="fill:#013c64;fill-opacity:1"
       d="m 572.49546,991.8913 c -1.375,-0.25969 -5.65,-1.65285 -9.5,-3.09592 -8.08514,-3.0305 -16.43639,-10.17744 -19.19286,-16.42514 -2.02015,-4.57876 -4.32221,-4.71584 -5.45996,-0.32513 -1.02676,3.96243 -8.06141,10.71695 -14.51164,13.93379 -7.56735,3.77395 -13.48625,4.55627 -34.47203,4.55627 l -18.86351,0 0,-38.5 0,-38.5 11.75,0.0758 c 23.32196,0.15054 34.21643,1.2677 40.47034,4.14998 6.97938,3.21664 14.32679,10.53057 15.91967,15.84715 0.64711,2.15987 1.44284,3.92014 1.76828,3.91172 1.48657,-0.0385 2.98297,-1.76333 4.32447,-4.98469 0.80165,-1.925 4.24218,-6.0776 7.64562,-9.22799 5.324,-4.92815 7.33544,-6.07145 14.40485,-8.18767 7.56695,-2.26516 9.16579,-2.40226 20.21677,-1.73358 10.4814,0.63421 12.8453,1.1217 18.67961,3.85219 8.94569,4.18663 15.13967,10.0848 18.92932,18.0253 2.82741,5.9243 3.06616,7.23891 2.97303,16.37025 -0.0832,8.15388 -0.55697,11.06701 -2.65063,16.29689 -3.34862,8.36469 -10.48278,15.51147 -20.37764,20.41368 -7.12255,3.52872 -7.92693,3.6963 -18.5,3.85417 -6.07953,0.0908 -12.17869,-0.0474 -13.55369,-0.30711 z m 24.35129,-15.41919 c 3.81484,-1.0766 10.72939,-7.07806 14.12401,-12.25889 1.07939,-1.64737 1.91009,-5.54161 2.25475,-10.57006 0.50075,-7.30582 0.33051,-8.32893 -2.06648,-12.41909 -1.4367,-2.45155 -4.89536,-6.51013 -7.68589,-9.01906 -5.92606,-5.32804 -9.88942,-6.28154 -22.1728,-5.33431 -12.67667,0.97755 -21.19728,5.92711 -26.10552,15.16447 -3.11446,5.86147 -3.01674,15.64287 0.2098,21 5.05141,8.38701 11.32394,13.06898 19.59084,14.62307 4.90278,0.92167 16.64002,0.28455 21.85129,-1.18613 z m -79.83648,-3.04226 c 9.12419,-4.82018 11.82261,-9.36002 11.84072,-19.9209 0.0109,-6.3873 -0.41592,-8.31409 -2.82084,-12.73271 -1.55855,-2.86358 -4.77444,-6.71849 -7.14641,-8.56648 l -4.31268,-3.35998 -14.72576,-0.63601 c -8.09916,-0.34981 -14.82463,-0.5331 -14.94548,-0.40731 -0.12085,0.12579 -0.37377,10.91644 -0.56204,23.97921 l -0.34232,23.75051 14.51481,-5.1e-4 c 12.82765,-4.4e-4 14.97804,-0.24522 18.5,-2.10582 z"
       id="path4337"
       inkscape:connector-curvature="0" />
    <path
       style="fill:#013c64;fill-opacity:1"
       d="m 642.06037,1052.405 c 15.03903,-15.9445 32.2253,-37.9718 40.20054,-51.5241 13.35032,-22.68619 22.46431,-43.80874 25.36975,-58.79682 2.6554,-13.69824 2.90017,-33.98926 0.50381,-41.7658 -5.58944,-18.13855 -10.52639,-25.70371 -21.7344,-33.30478 -6.66231,-4.51826 -10.43705,-6.54464 -21.90461,-11.75896 l -3.5,-1.59146 3,-0.0564 c 5.04759,-0.0949 15.70131,1.90466 21.5,4.03524 24.89429,9.1468 40.38129,29.33045 41.73615,54.39325 0.72864,13.47881 -1.1204,28.57975 -4.78387,39.06926 -5.71943,16.3763 -18.22743,37.83758 -33.1802,56.93077 -8.61024,10.9944 -29.11834,31.8988 -40.46669,41.2487 -11.31491,9.3223 -13.57777,10.3701 -6.74048,3.1211 z"
       id="path4339"
       inkscape:connector-curvature="0" />
    <path
       style="fill:#013c64;fill-opacity:1"
       d="m 622.66253,1027.6225 c 1.83311,-2.152 6.2975,-7.2145 9.92085,-11.25 13.66768,-15.2225 21.54435,-27.02619 32.34817,-48.47598 7.45338,-14.79787 9.16786,-21.47584 10.19342,-39.70391 0.60288,-10.71543 0.50178,-11.53217 -2.55195,-20.61677 -2.03588,-6.05658 -4.4499,-11.00945 -6.71073,-13.7685 -4.46333,-5.4469 -13.18622,-11.39699 -21.96925,-14.98573 l -6.81947,-2.78644 4.37831,-0.31568 c 6.18831,-0.44617 19.53278,3.959 26.90408,8.88136 10.12034,6.7581 17.57041,17.16502 20.07961,28.04898 0.55605,2.41194 1.022,9.11939 1.03545,14.90544 0.0304,13.07888 -2.18397,21.66302 -9.0224,34.97603 -11.97995,23.32252 -28.13006,42.5304 -54.06097,64.2967 -6.82833,5.7317 -8.17551,6.019 -3.72512,0.7945 z"
       id="path4341"
       inkscape:connector-curvature="0" />
    <path
       style="fill:#013c64;fill-opacity:1"
       d="m 614.49546,1008.8192 c 0,-0.6413 0.50062,-1.4754 1.11249,-1.8536 2.64102,-1.6322 16.21577,-21.43065 20.75931,-30.27692 7.93092,-15.44151 10.12532,-22.23624 11.35304,-35.15351 1.03711,-10.91168 0.97164,-11.90926 -1.27963,-19.5 -1.9725,-6.65081 -3.15694,-8.78621 -7.02312,-12.66182 -2.55777,-2.564 -6.84909,-5.80554 -9.53628,-7.20343 -4.33665,-2.25595 -4.58092,-2.54686 -2.17332,-2.58819 4.57557,-0.0785 13.3414,3.80861 18.16647,8.0558 2.85883,2.51645 5.81504,6.55072 7.8529,10.71666 3.08295,6.30239 3.26382,7.27598 3.19183,17.18098 -0.0501,6.89947 -0.68179,12.55745 -1.84204,16.5 -2.64377,8.98356 -10.11988,22.74875 -18.17344,33.46137 -7.30746,9.72017 -22.40821,25.43716 -22.40821,23.32266 z"
       id="path4343"
       inkscape:connector-curvature="0" />
  </g>
</svg>
